# xmcd
#
# Track frame offsets:
#	150
#	7908
#	27317
#	49004
#	66676
#	91147
#	109972
#	132528
#	163263
#	189229
#	208315
#	227123
#	253210
#	271225
#	292105
#	317138
#
# Disc length: 4491 seconds
#
# Revision: 2
# Processed by: cddbd v1.5.2PL0 Copyright (c) Steve Scherf et al.
# Submitted via: audiograbber 1.83.01
#
DISCID=f6118910
DTITLE=The Rolling Stones - Voodoo Lounge Uncut [CD 1)
DYEAR=2018
DGENRE=Rock
TTITLE0=Whoopi Goldberg Introduction [live]
TTITLE1=Not Fade Away [live]
TTITLE2=Tumbling Dice [live]
TTITLE3=You Got Me Rocking [live]
TTITLE4=Rocks Off [live]
TTITLE5=Sparks Will Fly [live]
TTITLE6=Live With Me [live with Sheryl Crow]
TTITLE7=(I Can't Get No) Satisfaction [live]
TTITLE8=Beast Of Burden [live]
TTITLE9=Angie [live]
TTITLE10=Dead Flowers [live]
TTITLE11=Sweet Virginia [live]
TTITLE12=Doo Doo Doo Doo Doo (Heartbreaker) [live]
TTITLE13=It's All Over Now [live]
TTITLE14=Stop Breakin' Down Blues [live with Robert Cray]
TTITLE15=Who Do You Love? [live with Bo Diddley]
EXTD=
EXTT0=
EXTT1=
EXTT2=
EXTT3=
EXTT4=
EXTT5=
EXTT6=
EXTT7=
EXTT8=
EXTT9=
EXTT10=
EXTT11=
EXTT12=
EXTT13=
EXTT14=
EXTT15=
PLAYORDER=
